<svg xmlns="http://www.w3.org/2000/svg" height="64" viewBox="0 0 40 64" class="is-hidden-sm-md">
  <g fill="none" fill-rule="evenodd">
    <path fill="#FFFFFF" fill-rule="nonzero" d="M21.12 57l-.48.33a5 5 0 0 0-.49.37 1.52 1.52 0 0 0-.36.43.7.7 0 0 0-.06.49.38.38 0 0 0 0 .09v.27c-.11.17-.21.34-.3.5a3.22 3.22 0 0 1-.29.44 1.1 1.1 0 0 1-.37.3 1.17 1.17 0 0 1-.54.1 2.35 2.35 0 0 1-.62-.11 3.15 3.15 0 0 1-.58-.25 5.05 5.05 0 0 1-.55-.36l-.53-.42a.1.1 0 0 0 0-.06v-.06V59a.13.13 0 0 1 0-.06 1.81 1.81 0 0 0-.21-.44 2.29 2.29 0 0 0-.32-.37 3.59 3.59 0 0 0-.38-.31l-.42-.26v.08a.3.3 0 0 0 0 .08v.16a4.6 4.6 0 0 0 .63 1.16c.251.35.547.666.88.94a4.5 4.5 0 0 0 1.07.66c.377.165.78.264 1.19.29a2.56 2.56 0 0 0 1.16-.19 2.52 2.52 0 0 0 .94-.7 2.82 2.82 0 0 0 .73-1.04 3.33 3.33 0 0 0 0-1.48l-.1-.52M4.75 36.56l-.13.06-.13.07-.13.07-.12.08c-.22.147-.437.3-.65.46a4.93 4.93 0 0 0-.57.52 4.35 4.35 0 0 0-.5.65 5.93 5.93 0 0 0-.45.87 4.31 4.31 0 0 1 1.19 0c.422.058.835.17 1.23.33.437.178.856.4 1.25.66.442.3.86.635 1.25 1l-1.67-5h-.3l-.15.05-.15.06m1.36-.27l1.64 4.82 3.65.05a15.27 15.27 0 0 0-1.23-2.05 9.72 9.72 0 0 0-1.29-1.39 5.71 5.71 0 0 0-1.37-.94 3.52 3.52 0 0 0-1.37-.36m2.16 6.34a20.11 20.11 0 0 1 1.65 2.27 28.46 28.46 0 0 1 1.56 2.83c.5 1.04.97 2.157 1.41 3.35a47.19 47.19 0 0 1 1.22 3.83 28.54 28.54 0 0 0-.11-3.67c-.053-.667-.123-1.3-.21-1.9-.09-.64-.21-1.28-.33-1.92-.09-.43-.19-.85-.29-1.26-.1-.41-.21-.81-.33-1.2-.12-.39-.24-.77-.36-1.14-.12-.37-.26-.71-.4-1.07l-3.85-.12M0 7.16c.107.987.223 1.987.35 3 .127 1.013.27 2.04.43 3.08.32 2.12.683 4.233 1.09 6.34.28 1.407.57 2.783.87 4.13.3 1.347.633 2.68 1 4 .32 1.253.653 2.503 1 3.75.347 1.247.71 2.427 1.09 3.54a3.19 3.19 0 0 1 .49 0c.34.005.677.063 1 .17a4 4 0 0 1 .5.21c-.393-.927-.77-1.86-1.13-2.8-.767-2-1.47-4-2.11-6a463.031 463.031 0 0 1-1-3.18l-1.13-4.29A88.827 88.827 0 0 1 1.47 15C.89 12.4.4 9.787 0 7.16m32.53 20.58c-.433.073-.86.163-1.28.27l-.62.17-.62.21-.68 6.11a27.43 27.43 0 0 1 4.46-4.04 23.49 23.49 0 0 1 2.4-1.51 22 22 0 0 1 2.48-1.16 8.93 8.93 0 0 0-1.44-.31 9.86 9.86 0 0 0-1.43-.08 14 14 0 0 0-1.5.1c-.553.067-1.103.143-1.65.23h-.11M27.31 37l-8.88 4.42c-.12.493-.22.99-.3 1.49-.08.5-.123 1.017-.13 1.55 0 .52-.06 1 0 1.56a17.4 17.4 0 0 0 .49 3.9c.18.738.41 1.464.69 2.17.285.69.62 1.358 1 2a15 15 0 0 0 1.21 1.8 34.92 34.92 0 0 1 1.8-10.41A33.83 33.83 0 0 1 24.94 41a31.66 31.66 0 0 1 2.37-4"></path>
    <path fill="#FFFFFF" d="M24.63 0a34.22 34.22 0 0 1 .72 3.43c.19 1.2.33 2.44.44 3.74.11 1.3.21 2.66.21 4.06 0 1.4.09 2.9.11 4.42a42 42 0 0 1-.67 8.77 25.8 25.8 0 0 1-1.92 6 46.7 46.7 0 0 1-2.36 4.29 17.35 17.35 0 0 0-1.86 4v.44l8.4-4c.407-2.507.693-5.027.86-7.56.15-2.29.19-4.43.15-6.42a73.363 73.363 0 0 0-.32-5.41 64.74 64.74 0 0 0-.6-4.51 54.204 54.204 0 0 0-.58-3A57.09 57.09 0 0 0 24.63 0" opacity=".7"></path>
  </g>
</svg>
